<svg width="144" height="51" viewBox="0 0 144 51" fill="none" xmlns="http://www.w3.org/2000/svg">
<path d="M16.6397 32.5987C10.2019 33.2788 9.75966 36.7191 12.8843 38.0395C14.4938 38.7196 20.3951 39.0596 23.0775 36.3392C26.4591 32.9098 19.6798 32.2587 16.6397 32.5987Z" fill="#316879" stroke="#398292"/>
<path d="M5.33825 38.5854C0.386092 39.1521 0.0458953 42.019 2.44949 43.1193C3.68753 43.6861 8.22701 43.9695 10.2904 41.7025C12.8916 38.8446 7.67676 38.302 5.33825 38.5854Z" fill="#336666" stroke="#398292"/>
<path d="M24.3935 27.8471C24.7439 23.1275 46.8488 4.34213 61.2827 8.73754C61.827 8.90329 62.4252 8.64146 62.7165 8.16775C66.2353 2.44598 81.8086 0.125904 93.6008 6.38315C94.1685 6.68436 94.8968 6.42069 95.2036 5.86917C98.4257 0.0783415 110.424 -1.95097 120.883 7.74978C121.158 8.00543 121.567 8.09427 121.936 7.98999C130.04 5.70154 136.034 12.848 134.47 19.7489C134.341 20.3168 134.717 20.9036 135.306 21.0327C152.512 24.8017 138.663 40.5838 124.033 38.4554C123.582 38.3899 123.126 38.6134 122.909 38.9992C114.483 53.9345 87.2109 45.7675 90.8938 41.8751C78.9385 50.0943 58.0969 52.8757 50.6052 45.6875C50.5933 45.6761 50.5836 45.6663 50.5724 45.6544C50.3577 45.4261 47.9292 42.846 47.2252 42.1996C47.11 42.0938 46.9666 42.0857 46.8225 42.1464C44.1907 43.2561 39.5725 44.7411 36.6206 39.4996C36.5353 39.3482 36.5041 39.1698 36.4648 39.0006C36.354 38.5243 35.9141 38.1517 35.3878 38.1314C31.3351 37.9751 24.9045 35.8167 24.3935 27.8471Z" fill="#316879"/>
<path d="M90.9253 41.8427C90.9148 41.8535 90.9043 41.8643 90.8938 41.8751M90.8938 41.8751C78.9385 50.0943 58.0969 52.8757 50.6052 45.6875C50.5933 45.6761 50.5836 45.6663 50.5724 45.6544C50.3577 45.4261 47.9292 42.846 47.2252 42.1996C47.11 42.0938 46.9666 42.0857 46.8225 42.1464C44.1907 43.2562 39.5725 44.7411 36.6206 39.4996C36.5353 39.3482 36.5041 39.1698 36.4648 39.0006C36.354 38.5243 35.9141 38.1517 35.3878 38.1314C31.3351 37.9751 24.9045 35.8167 24.3935 27.8471C24.7439 23.1275 46.8488 4.34213 61.2827 8.73754C61.827 8.90329 62.4252 8.64146 62.7165 8.16775C66.2353 2.44598 81.8086 0.125904 93.6008 6.38315C94.1685 6.68436 94.8968 6.42069 95.2036 5.86917C98.4257 0.0783415 110.424 -1.95097 120.883 7.74978C121.158 8.00543 121.567 8.09427 121.936 7.98999C130.04 5.70154 136.034 12.848 134.47 19.7489C134.341 20.3168 134.717 20.9036 135.306 21.0327C152.512 24.8017 138.663 40.5838 124.033 38.4554C123.582 38.3899 123.126 38.6134 122.909 38.9992C114.483 53.9345 87.2109 45.7675 90.8938 41.8751Z" stroke="#398292"/>
<path d="M49.6016 31.5186H46.875V26.7686H42.8359V31.5186H40.0938V20.1436H42.8359V24.6593H46.875V20.1436H49.6016V31.5186Z" fill="white"/>
<path d="M58.3984 26.6983H54.0859V29.4093H59.1797V31.5186H51.3438V20.1436H59.1953V22.2608H54.0859V24.6593H58.3984V26.6983Z" fill="white"/>
<path d="M69.8203 23.2999C69.8203 22.9405 69.6797 22.6515 69.3984 22.4327C69.1224 22.214 68.7474 22.1046 68.2734 22.1046C67.8307 22.1046 67.474 22.2114 67.2031 22.4249C66.9375 22.6332 66.8047 22.9093 66.8047 23.253H64.0703C64.0703 22.628 64.2474 22.0681 64.6016 21.5733C64.9609 21.0785 65.4661 20.6931 66.1172 20.4171C66.7682 20.1358 67.487 19.9952 68.2734 19.9952C69.6276 19.9952 70.6797 20.2791 71.4297 20.8468C72.1849 21.4145 72.5625 22.2088 72.5625 23.2296C72.5625 23.7504 72.4089 24.227 72.1016 24.6593C71.7995 25.0864 71.3802 25.4249 70.8438 25.6749C71.4583 25.8936 71.9271 26.227 72.25 26.6749C72.5781 27.1176 72.7422 27.6697 72.7422 28.3311C72.7422 29.352 72.3359 30.1645 71.5234 30.7686C70.7109 31.3676 69.6276 31.6671 68.2734 31.6671C67.0182 31.6671 65.9766 31.3728 65.1484 30.7843C64.3203 30.1905 63.9062 29.3832 63.9062 28.3624H66.6562C66.6562 28.7009 66.8073 28.9874 67.1094 29.2218C67.4115 29.4509 67.7995 29.5655 68.2734 29.5655C68.7839 29.5655 69.1979 29.4457 69.5156 29.2061C69.8333 28.9666 69.9922 28.6541 69.9922 28.2686C69.9922 27.7061 69.8568 27.3103 69.5859 27.0811C69.3151 26.8468 68.9193 26.7296 68.3984 26.7296H66.9375V24.6983H68.4922C69.3776 24.6723 69.8203 24.2061 69.8203 23.2999Z" fill="white"/>
<path d="M80.8203 29.3936H77.0625L76.4062 31.5186H73.4766L77.6484 20.1436H80.2266L84.4297 31.5186H81.4844L80.8203 29.3936ZM77.7188 27.2765H80.1641L78.9375 23.3311L77.7188 27.2765Z" fill="white"/>
<path d="M92.9531 22.2608H88.0234V24.0577H89.4375C90.3385 24.0577 91.1354 24.2114 91.8281 24.5186C92.5208 24.8259 93.0521 25.2608 93.4219 25.8233C93.7969 26.3806 93.9844 27.0213 93.9844 27.7452C93.9844 28.865 93.5677 29.7739 92.7344 30.4718C91.9062 31.1697 90.7917 31.5186 89.3906 31.5186H85.2656V20.1436H92.9531V22.2608ZM88.0234 26.1671V29.4093H89.4297C89.987 29.4093 90.4271 29.253 90.75 28.9405C91.0781 28.628 91.2422 28.2244 91.2422 27.7296C91.2422 27.2608 91.0807 26.8832 90.7578 26.5968C90.4349 26.3103 89.987 26.1671 89.4141 26.1671H88.0234Z" fill="white"/>
<path d="M99.5391 25.0811V25.089L101.422 20.1436H104.312L100.484 29.1671C100.073 30.0785 99.6094 30.7218 99.0938 31.0968C98.5833 31.4666 97.9844 31.6619 97.2969 31.6827H96.7422L96.3203 31.6671L96.2734 29.5421C96.3359 29.5629 96.5182 29.5733 96.8203 29.5733C97.237 29.5733 97.5495 29.503 97.7578 29.3624C97.9714 29.2166 98.1432 28.9379 98.2734 28.5265L98.4062 28.1515L94.2969 20.1436H97.2109L99.5391 25.0811Z" fill="white"/>
<path d="M115.25 34.3155H112.789V31.5186H106.594V34.3077H104.055L103.859 29.4093H104.664C105.086 29.128 105.424 28.6463 105.68 27.964C105.94 27.2765 106.125 26.2921 106.234 25.0108L106.586 20.1436H114.328V29.4093H115.539L115.25 34.3155ZM107.766 29.4093H111.594V22.2608H109.172L108.961 25.1046C108.805 26.9483 108.406 28.3832 107.766 29.4093Z" fill="white"/>
<path d="M118.992 24.0577H120.406C121.307 24.0577 122.104 24.2114 122.797 24.5186C123.49 24.8259 124.021 25.2608 124.391 25.8233C124.766 26.3806 124.953 27.0213 124.953 27.7452C124.953 28.865 124.536 29.7739 123.703 30.4718C122.875 31.1697 121.76 31.5186 120.359 31.5186H116.242V20.1436H118.992V24.0577ZM118.992 26.1671V29.4093H120.398C120.956 29.4093 121.396 29.253 121.719 28.9405C122.047 28.628 122.211 28.2244 122.211 27.7296C122.211 27.2608 122.049 26.8832 121.727 26.5968C121.404 26.3103 120.956 26.1671 120.383 26.1671H118.992Z" fill="white"/>
<path d="M128.695 27.9171H126.562L126.227 20.1436H129.031L128.695 27.9171ZM126.148 30.339C126.148 29.9535 126.286 29.6384 126.562 29.3936C126.844 29.1436 127.193 29.0186 127.609 29.0186C128.026 29.0186 128.372 29.1436 128.648 29.3936C128.93 29.6384 129.07 29.9535 129.07 30.339C129.07 30.7244 128.93 31.0421 128.648 31.2921C128.372 31.5369 128.026 31.6593 127.609 31.6593C127.193 31.6593 126.844 31.5369 126.562 31.2921C126.286 31.0421 126.148 30.7244 126.148 30.339Z" fill="white"/>
</svg>
